<mxfile host="app.diagrams.net" modified="2020-12-09T09:17:06.516Z" agent="5.0 (Windows NT 6.1; Win64; x64) AppleWebKit/537.36 (KHTML, like Gecko) Chrome/87.0.4280.88 Safari/537.36" etag="I-qKHalqPfRzV2uoJ6S2" version="13.10.4" type="github">
  <diagram id="C5RBs43oDa-KdzZeNtuy" name="Page-1">
    <mxGraphModel dx="868" dy="492" grid="1" gridSize="10" guides="1" tooltips="1" connect="1" arrows="1" fold="1" page="1" pageScale="1" pageWidth="827" pageHeight="1169" math="0" shadow="0">
      <root>
        <mxCell id="WIyWlLk6GJQsqaUBKTNV-0" />
        <mxCell id="WIyWlLk6GJQsqaUBKTNV-1" parent="WIyWlLk6GJQsqaUBKTNV-0" />
        <mxCell id="0sPjcOeKoFcehSBQwHY8-8" value="Calculate" style="swimlane;fontStyle=1;align=center;verticalAlign=top;childLayout=stackLayout;horizontal=1;startSize=26;horizontalStack=0;resizeParent=1;resizeParentMax=0;resizeLast=0;collapsible=1;marginBottom=0;" vertex="1" parent="WIyWlLk6GJQsqaUBKTNV-1">
          <mxGeometry x="540" y="100" width="260" height="150" as="geometry" />
        </mxCell>
        <mxCell id="0sPjcOeKoFcehSBQwHY8-9" value="- total : double&#xa;- quantity : int&#xa;- price : int&#xa;Â " style="text;strokeColor=none;fillColor=none;align=left;verticalAlign=top;spacingLeft=4;spacingRight=4;overflow=hidden;rotatable=0;points=[[0,0.5],[1,0.5]];portConstraint=eastwest;" vertex="1" parent="0sPjcOeKoFcehSBQwHY8-8">
          <mxGeometry y="26" width="260" height="64" as="geometry" />
        </mxCell>
        <mxCell id="0sPjcOeKoFcehSBQwHY8-10" value="" style="line;strokeWidth=1;fillColor=none;align=left;verticalAlign=middle;spacingTop=-1;spacingLeft=3;spacingRight=3;rotatable=0;labelPosition=right;points=[];portConstraint=eastwest;" vertex="1" parent="0sPjcOeKoFcehSBQwHY8-8">
          <mxGeometry y="90" width="260" height="8" as="geometry" />
        </mxCell>
        <mxCell id="0sPjcOeKoFcehSBQwHY8-11" value="+ Calculate()&#xa;+ Calculate(total:double, quantity:int, price:int)&#xa;+ toString()&#xa;" style="text;strokeColor=none;fillColor=none;align=left;verticalAlign=top;spacingLeft=4;spacingRight=4;overflow=hidden;rotatable=0;points=[[0,0.5],[1,0.5]];portConstraint=eastwest;" vertex="1" parent="0sPjcOeKoFcehSBQwHY8-8">
          <mxGeometry y="98" width="260" height="52" as="geometry" />
        </mxCell>
        <mxCell id="0sPjcOeKoFcehSBQwHY8-12" value="Customer" style="swimlane;fontStyle=1;align=center;verticalAlign=top;childLayout=stackLayout;horizontal=1;startSize=26;horizontalStack=0;resizeParent=1;resizeParentMax=0;resizeLast=0;collapsible=1;marginBottom=0;" vertex="1" parent="WIyWlLk6GJQsqaUBKTNV-1">
          <mxGeometry x="50" y="80" width="370" height="270" as="geometry" />
        </mxCell>
        <mxCell id="0sPjcOeKoFcehSBQwHY8-13" value="- width : double&#xa;- height : double&#xa;- size : double&#xa;- quantity : int" style="text;strokeColor=none;fillColor=none;align=left;verticalAlign=top;spacingLeft=4;spacingRight=4;overflow=hidden;rotatable=0;points=[[0,0.5],[1,0.5]];portConstraint=eastwest;" vertex="1" parent="0sPjcOeKoFcehSBQwHY8-12">
          <mxGeometry y="26" width="370" height="74" as="geometry" />
        </mxCell>
        <mxCell id="0sPjcOeKoFcehSBQwHY8-14" value="" style="line;strokeWidth=1;fillColor=none;align=left;verticalAlign=middle;spacingTop=-1;spacingLeft=3;spacingRight=3;rotatable=0;labelPosition=right;points=[];portConstraint=eastwest;" vertex="1" parent="0sPjcOeKoFcehSBQwHY8-12">
          <mxGeometry y="100" width="370" height="8" as="geometry" />
        </mxCell>
        <mxCell id="0sPjcOeKoFcehSBQwHY8-15" value="+ Customer()&#xa;+ Customer(width:double, height:double, size:double, quantity:int)&#xa;+ setWidth(width:double):void&#xa;+ getWidth():double&#xa;+ setHeight(height:double):void&#xa;+ getHeight():double&#xa;+ setSize(size:double):void&#xa;+ getSize():double&#xa;+ setQuantity(quantity:int):void&#xa;+ getQuantity():int&#xa;" style="text;strokeColor=none;fillColor=none;align=left;verticalAlign=top;spacingLeft=4;spacingRight=4;overflow=hidden;rotatable=0;points=[[0,0.5],[1,0.5]];portConstraint=eastwest;" vertex="1" parent="0sPjcOeKoFcehSBQwHY8-12">
          <mxGeometry y="108" width="370" height="162" as="geometry" />
        </mxCell>
        <mxCell id="0sPjcOeKoFcehSBQwHY8-16" value="Extends" style="endArrow=block;endSize=16;endFill=0;html=1;" edge="1" parent="WIyWlLk6GJQsqaUBKTNV-1">
          <mxGeometry width="160" relative="1" as="geometry">
            <mxPoint x="538" y="135" as="sourcePoint" />
            <mxPoint x="420" y="93" as="targetPoint" />
          </mxGeometry>
        </mxCell>
      </root>
    </mxGraphModel>
  </diagram>
</mxfile>
